<svg width="127" height="154" viewBox="0 0 127 154" fill="none" xmlns="http://www.w3.org/2000/svg">
<mask id="mask0_335_437" style="mask-type:luminance" maskUnits="userSpaceOnUse" x="0" y="0" width="127" height="154">
<path d="M109.538 -5.59054e-06L0 12.8384L16.5065 153.673L126.045 140.835L109.538 -5.59054e-06Z" fill="white"/>
</mask>
<g mask="url(#mask0_335_437)">
<path d="M110.406 52.3286C108.258 55.1329 106.835 58.5422 104.265 60.9819C103.365 61.8118 104.511 63.3678 105.411 62.5379C108.168 59.9382 109.655 56.4869 111.927 53.5646C112.702 52.5425 111.185 51.3405 110.406 52.3286Z" fill="#4A5D73"/>
<path d="M104.676 56.277C107.598 57.7282 110.113 59.8135 112.103 62.4088C112.837 63.392 114.388 62.2444 113.654 61.2612C111.459 58.3795 108.716 56.1139 105.465 54.4943C104.333 53.9371 103.578 55.7158 104.676 56.277Z" fill="#4A5D73"/>
<path d="M22.0937 136.496C19.9456 139.3 18.5219 142.71 15.9527 145.149C15.0524 145.979 16.1979 147.535 17.0982 146.705C19.8551 144.106 21.3426 140.654 23.6145 137.732C24.3552 136.714 22.8383 135.512 22.0937 136.496Z" fill="#4A5D73"/>
<path d="M16.3322 140.448C19.2543 141.9 21.7691 143.985 23.7589 146.58C24.4933 147.563 26.0444 146.416 25.31 145.433C23.1146 142.551 20.3723 140.285 17.1209 138.666C15.9892 138.109 15.2344 139.887 16.3322 140.448Z" fill="#4A5D73"/>
<path d="M71.668 45.5548C70.1289 46.8045 68.7794 48.2044 67.6654 49.8527C66.5513 51.501 65.8505 53.4458 64.6227 55.004C63.8441 55.9921 65.357 57.16 66.1396 56.2059C67.2775 54.7618 67.9045 53.0671 68.8908 51.5028C69.9629 49.7904 71.3084 48.3564 72.8435 47.0727C73.7858 46.3069 72.6442 44.785 71.668 45.5548Z" fill="#4A5D73"/>
<path d="M63.885 47.5363C66.8171 49.3658 69.4496 51.5753 71.651 54.2148C72.4493 55.156 74.0004 54.0084 73.2021 53.0671C70.883 50.3035 68.1626 47.9318 65.0829 46.0162C64.045 45.379 62.8432 46.8651 63.885 47.5363Z" fill="#4A5D73"/>
<path d="M59.3633 138.371C57.8242 139.621 56.4746 141.021 55.3606 142.669C54.2466 144.318 53.5458 146.262 52.318 147.821C51.5394 148.809 53.0523 149.977 53.8349 149.022C54.9728 147.578 55.5998 145.884 56.586 144.319C57.6581 142.607 59.0037 141.173 60.5388 139.889C61.481 139.123 60.3355 137.568 59.3633 138.371Z" fill="#4A5D73"/>
<path d="M51.6162 140.349C54.5482 142.178 57.1808 144.388 59.3822 147.027C60.1805 147.969 61.7316 146.821 60.9333 145.88C58.6142 143.116 55.8938 140.744 52.8141 138.829C51.7422 138.195 50.5404 139.682 51.6162 140.349Z" fill="#4A5D73"/>
<path d="M118 84.2422C116.461 85.4919 115.111 86.8918 113.997 88.5401C112.883 90.1884 112.182 92.1332 110.955 93.6913C110.176 94.6794 111.689 95.8474 112.471 94.8933C113.609 93.4492 114.236 91.7545 115.223 90.1901C116.295 88.4778 117.64 87.0438 119.175 85.7601C120.118 84.9943 118.942 83.4763 118 84.2422Z" fill="#4A5D73"/>
<path d="M110.217 86.2237C113.149 88.0532 115.781 90.2627 117.983 92.9021C118.781 93.8434 120.332 92.6958 119.534 91.7545C117.215 88.9909 114.494 86.6192 111.415 84.7036C110.377 84.0663 109.175 85.5525 110.217 86.2237Z" fill="#4A5D73"/>
<path d="M87.9071 20.8861C85.9227 23.9127 84.0899 27.0594 82.4008 30.2584C81.8078 31.3627 83.5823 32.1205 84.1752 31.0162C85.7784 27.9653 87.5254 24.9666 89.42 22.054C90.0589 21.0478 88.5759 19.8419 87.9071 20.8861Z" fill="#4A5D73"/>
<path d="M82.2469 24.2741C84.0892 25.024 85.8457 25.9219 87.4604 27.0779C88.8136 28.0576 89.9652 29.3714 91.4342 30.165C92.5359 30.7603 93.2907 28.9816 92.1889 28.3864C90.5682 27.4725 89.2869 25.9325 87.7221 24.9086C86.2331 23.9449 84.6583 23.1291 83.0316 22.4574C81.8819 22.0403 81.0893 23.7889 82.2469 24.2741Z" fill="#4A5D73"/>
<path d="M68.2705 5.11238C65.5096 8.26447 62.7107 11.3865 59.9158 14.5426C59.0953 15.4666 60.6122 16.6686 61.4327 15.7445C64.2276 12.5885 66.9925 9.47041 69.7874 6.31434C70.6079 5.39033 69.091 4.18836 68.2705 5.11238Z" fill="#4A5D73"/>
<path d="M61.1685 7.32455C63.8989 9.48809 66.4716 11.7736 68.9624 14.2412C69.8545 15.1024 71.0184 13.5863 70.1602 12.721C67.7033 10.2495 65.0967 7.96795 62.3664 5.80441C61.3844 5.05716 60.1826 6.54327 61.1685 7.32455Z" fill="#4A5D73"/>
<path d="M42.6666 30.8449C40.229 34.4075 39.2524 38.6957 37.1101 42.4306C36.4792 43.5049 38.2536 44.2628 38.8845 43.1885C40.9409 39.6016 41.8317 35.4614 44.1795 32.0128C44.8563 31.0366 43.3733 29.8307 42.6666 30.8449Z" fill="#4A5D73"/>
<path d="M36.0715 34.1362C39.8678 36.0023 43.2569 38.5026 46.1628 41.5769C46.9911 42.4801 48.5422 41.3325 47.7139 40.4293C44.6024 37.0686 40.9858 34.388 36.8642 32.3876C35.7325 31.8303 34.9777 33.609 36.0715 34.1362Z" fill="#4A5D73"/>
<path d="M47.6192 65.7926C45.5228 69.6257 43.3506 73.3986 41.0687 77.1154C40.4338 78.1557 41.9167 79.3616 42.5855 78.3174C44.9534 74.4525 47.2114 70.5315 49.3597 66.5544C49.9566 65.4841 48.1822 64.7263 47.6192 65.7926Z" fill="#4A5D73"/>
<path d="M39.166 68.7842C41.8364 71.6102 44.9859 73.8281 48.1135 76.152C49.0955 76.8993 50.2933 75.3791 49.3113 74.6319C46.3694 72.4242 43.2657 70.3044 40.7131 67.6026C39.8888 66.7334 38.3377 67.881 39.166 68.7842Z" fill="#4A5D73"/>
<path d="M82.7022 83.3431C80.9192 87.2084 78.1183 90.6066 75.7066 94.0972C74.9999 95.1114 76.5168 96.3133 77.2235 95.2992C79.725 91.6946 82.5739 88.1183 84.4427 84.1049C84.9977 82.9705 83.2233 82.2127 82.7022 83.3431Z" fill="#4A5D73"/>
<path d="M75.5346 85.5631C78.4027 88.021 81.0232 90.7148 83.3962 93.6446C84.1646 94.6238 85.7117 93.4422 84.9473 92.497C82.4905 89.439 79.7522 86.621 76.7324 84.043C75.7764 83.2237 74.5786 84.7438 75.5346 85.5631Z" fill="#4A5D73"/>
<path d="M48.2725 101.866C46.4896 105.731 43.6887 109.129 41.277 112.62C40.5702 113.634 42.0871 114.836 42.7938 113.822C45.2954 110.217 48.1442 106.641 50.013 102.628C50.5341 101.497 48.7937 100.736 48.2725 101.866Z" fill="#4A5D73"/>
<path d="M41.101 104.086C43.9691 106.544 46.5896 109.238 48.9626 112.167C49.731 113.147 51.2781 111.965 50.5137 111.02C48.0569 107.962 45.3186 105.144 42.2989 102.566C41.3428 101.747 40.145 103.267 41.101 104.086Z" fill="#4A5D73"/>
</g>
</svg>
