<svg width="951" height="324" viewBox="0 0 951 324" fill="none" xmlns="http://www.w3.org/2000/svg">
<path d="M1051 132.789C1006.08 224.271 893.545 303.436 835.464 295.827C762.863 286.317 796.188 173.143 810.507 155.433C831.38 129.619 853.615 145.017 857.245 180.342C858.683 194.337 857.245 274.089 778.744 278.165C700.244 282.241 613.576 166.755 576.367 111.956C539.159 57.1576 483.347 1.00004 411.653 1.00004C242.854 1.00005 213.803 94.2034 182.504 160.868C138.489 254.615 107.634 287.675 1.00005 323" stroke="url(#paint0_linear_335_10)" stroke-width="2"/>
<path d="M1051 132.789C1006.08 224.271 893.545 303.436 835.464 295.827C762.863 286.317 796.188 173.143 810.507 155.433C831.38 129.619 853.615 145.017 857.245 180.342C858.683 194.337 857.245 274.089 778.744 278.165C700.244 282.241 613.576 166.755 576.367 111.956C539.159 57.1576 483.347 1.00004 411.653 1.00004C242.854 1.00005 213.803 94.2034 182.504 160.868C138.489 254.615 107.634 287.675 1.00005 323" stroke="url(#paint1_linear_335_10)" stroke-width="2"/>
<defs>
<linearGradient id="paint0_linear_335_10" x1="1205.73" y1="51.2701" x2="940.773" y2="-308.14" gradientUnits="userSpaceOnUse">
<stop stop-color="white"/>
<stop offset="0.30553" stop-color="#A36FE4"/>
<stop offset="0.578125" stop-color="#878ED2"/>
<stop offset="1" stop-color="#7DC1D0"/>
</linearGradient>
<linearGradient id="paint1_linear_335_10" x1="1051" y1="162" x2="1.00006" y2="162" gradientUnits="userSpaceOnUse">
<stop stop-color="#FF6F61"/>
<stop offset="0.5" stop-color="#FFC107"/>
<stop offset="1" stop-color="#4A5D73"/>
</linearGradient>
</defs>
</svg>
