<svg width="375" height="1186" viewBox="0 0 375 1186" fill="none" xmlns="http://www.w3.org/2000/svg">
<path d="M247.954 1186.77C142.185 1139.25 47.8043 1014.39 54.2063 948.064C62.2088 865.16 192.195 898.659 212.888 914.252C243.052 936.981 226.403 962.854 186.374 968.35C170.515 970.527 79.7701 971.982 72.0942 882.899C64.4184 793.815 192.385 690.814 253.258 646.391C314.131 601.969 375.828 536.344 373.051 454.84C366.512 262.946 259.401 233.532 182.381 200.533C74.0721 154.128 35.2822 120.332 -9.01811 0.476963" stroke="url(#paint0_linear_799_10)" stroke-width="2"/>
<path d="M247.954 1186.77C142.185 1139.25 47.8043 1014.39 54.2063 948.064C62.2088 865.16 192.195 898.659 212.888 914.252C243.052 936.981 226.403 962.854 186.374 968.35C170.515 970.527 79.7701 971.982 72.0942 882.899C64.4184 793.815 192.385 690.814 253.258 646.391C314.131 601.969 375.828 536.344 373.051 454.84C366.512 262.946 259.401 233.532 182.381 200.533C74.0721 154.128 35.2822 120.332 -9.01811 0.476963" stroke="url(#paint1_linear_799_10)" stroke-width="2"/>
<defs>
<linearGradient id="paint0_linear_799_10" x1="346.647" y1="1359.52" x2="745" y2="1044.27" gradientUnits="userSpaceOnUse">
<stop stop-color="white"/>
<stop offset="0.30553" stop-color="#A36FE4"/>
<stop offset="0.578125" stop-color="#878ED2"/>
<stop offset="1" stop-color="#7DC1D0"/>
</linearGradient>
<linearGradient id="paint1_linear_799_10" x1="214.737" y1="1187.9" x2="174.063" y2="-5.76156" gradientUnits="userSpaceOnUse">
<stop stop-color="#FF6F61"/>
<stop offset="0.5" stop-color="#FFC107"/>
<stop offset="1" stop-color="#4A5D73"/>
</linearGradient>
</defs>
</svg>
