<svg width="314" height="1048" viewBox="0 0 314 1048" fill="none" xmlns="http://www.w3.org/2000/svg">
<path d="M120.148 0.858119C212.523 43.9155 293.954 154.819 287.525 213.043C279.489 285.822 165.662 254.8 147.666 240.842C121.434 220.497 136.377 197.955 171.621 193.609C185.584 191.887 265.349 191.708 271.016 270.109C276.684 348.511 162.98 437.504 108.947 475.816C54.9144 514.128 -0.0995177 571.068 1.35468 642.747C4.77848 811.511 98.5519 838.665 165.837 868.606C260.458 910.71 294.137 940.889 331.618 1046.78" stroke="url(#paint0_linear_799_9)" stroke-width="2"/>
<path d="M120.148 0.858119C212.523 43.9155 293.954 154.819 287.525 213.043C279.489 285.822 165.662 254.8 147.666 240.842C121.434 220.497 136.377 197.955 171.621 193.609C185.584 191.887 265.349 191.708 271.016 270.109C276.684 348.511 162.98 437.504 108.947 475.816C54.9144 514.128 -0.0995177 571.068 1.35468 642.747C4.77848 811.511 98.5519 838.665 165.837 868.606C260.458 910.71 294.137 940.889 331.618 1046.78" stroke="url(#paint1_linear_799_9)" stroke-width="2"/>
<defs>
<linearGradient id="paint0_linear_799_9" x1="35.5078" y1="-152.189" x2="-318.454" y2="120.006" gradientUnits="userSpaceOnUse">
<stop stop-color="white"/>
<stop offset="0.30553" stop-color="#A36FE4"/>
<stop offset="0.578125" stop-color="#878ED2"/>
<stop offset="1" stop-color="#7DC1D0"/>
</linearGradient>
<linearGradient id="paint1_linear_799_9" x1="149.353" y1="0.265622" x2="170.651" y2="1050.05" gradientUnits="userSpaceOnUse">
<stop stop-color="#FF6F61"/>
<stop offset="0.5" stop-color="#FFC107"/>
<stop offset="1" stop-color="#4A5D73"/>
</linearGradient>
</defs>
</svg>
