<svg width="1920" height="1190" viewBox="0 0 1920 1190" fill="none" xmlns="http://www.w3.org/2000/svg">
<g opacity="0.02">
<path d="M955.173 480.169L546.358 -529.678C522.702 -520.013 499.046 -509.348 476.056 -498.35L954.506 480.502C954.506 480.502 954.84 480.502 955.173 480.169Z" fill="white"/>
<path d="M953.502 481.168L407.748 -462.023C385.758 -449.358 363.768 -435.36 342.445 -421.029L952.502 481.501C952.835 481.501 953.169 481.168 953.502 481.168Z" fill="white"/>
<path d="M963.164 479.835L1150.41 -593.669C1125.09 -598.002 1099.44 -601.668 1074.11 -604.334L962.164 479.502C962.498 479.835 962.831 479.835 963.164 479.835Z" fill="white"/>
<path d="M957.836 479.502L844.554 -604.001C819.232 -601.334 793.577 -597.668 768.255 -593.336L956.503 479.836C957.169 479.836 957.502 479.836 957.836 479.502Z" fill="white"/>
<path d="M956.168 479.836L692.954 -577.338C667.965 -571.006 642.977 -564.007 618.654 -556.008L955.502 480.169C955.835 480.169 956.168 479.836 956.168 479.836Z" fill="white"/>
<path d="M951.838 482.169L280.475 -375.702C260.484 -360.038 240.826 -343.373 221.835 -326.376L950.839 483.168C951.172 482.835 951.505 482.502 951.838 482.169Z" fill="white"/>
<path d="M946.505 489.834L-119.013 264.534C-124.344 289.53 -128.676 315.193 -132.341 340.523L946.505 490.833C946.505 490.5 946.505 490.167 946.505 489.834Z" fill="white"/>
<path d="M946.838 488.5L-76.6992 116.223C-85.362 140.22 -93.3584 165.216 -100.688 189.546L946.505 489.167C946.838 489.167 946.838 488.834 946.838 488.5Z" fill="white"/>
<path d="M947.506 487.168L-13.7264 -25.0883C-25.721 -2.42511 -37.0492 20.9047 -47.711 44.2346L947.173 487.834C947.173 487.834 947.506 487.501 947.506 487.168Z" fill="white"/>
<path d="M950.172 483.835L166.527 -273.051C148.868 -254.72 131.543 -235.39 115.217 -216.059L949.173 484.835C949.506 484.502 949.839 484.168 950.172 483.835Z" fill="white"/>
<path d="M948.508 485.501L67.906 -155.402C52.9127 -134.739 38.2527 -113.409 24.9254 -91.7452L947.842 486.501C948.175 486.167 948.508 485.834 948.508 485.501Z" fill="white"/>
<path d="M972.832 487.834L1967.38 43.2345C1957.05 19.9047 1945.39 -3.42511 1933.4 -26.0884L972.498 487.167C972.832 487.501 972.832 487.834 972.832 487.834Z" fill="white"/>
<path d="M973.826 493.5L2063 492.167C2063 466.838 2062 441.175 2060.33 415.845L973.826 492.167C973.826 492.5 973.826 492.834 973.826 493.5Z" fill="white"/>
<path d="M972.163 486.501L1895.08 -92.4116C1881.42 -114.075 1867.09 -135.405 1852.1 -156.069L971.496 485.501C971.829 485.834 971.829 486.168 972.163 486.501Z" fill="white"/>
<path d="M946.174 494.833V493.167C946.174 492.5 946.174 492.167 946.174 491.5L-140.335 417.178C-142 441.841 -143 467.17 -143 492.5C-143 493.833 -143 495.166 -143 496.833L946.174 493.167V494.833L-140.335 572.488C-138.669 597.817 -135.67 623.813 -132.338 648.81L946.507 496.166C946.174 495.833 946.174 495.166 946.174 494.833Z" fill="white"/>
<path d="M973.495 489.167L2020.36 188.212C2013.36 163.549 2005.36 138.887 1996.37 114.557L973.162 488.5C973.162 488.834 973.495 489.167 973.495 489.167Z" fill="white"/>
<path d="M973.827 490.834L2052.34 339.19C2048.67 313.86 2044.34 288.198 2039.01 263.201L973.494 489.834C973.827 490.167 973.827 490.5 973.827 490.834Z" fill="white"/>
<path d="M964.497 480.168L1300.01 -556.342C1275.69 -564.34 1250.7 -571.339 1225.71 -577.672L963.83 479.835C964.164 479.835 964.163 480.168 964.497 480.168Z" fill="white"/>
<path d="M970.828 484.834L1804.45 -216.726C1788.13 -236.057 1770.8 -255.387 1753.14 -273.718L970.162 483.501C970.162 484.168 970.495 484.501 970.828 484.834Z" fill="white"/>
<path d="M967.498 481.502L1576.89 -421.695C1555.57 -436.026 1533.91 -449.691 1511.59 -462.355L966.498 481.169C966.832 481.169 967.165 481.502 967.498 481.502Z" fill="white"/>
<path d="M965.831 480.502L1443.28 -498.683C1420.29 -510.015 1396.64 -520.347 1372.65 -530.012L965.164 480.502C965.498 480.502 965.498 480.502 965.831 480.502Z" fill="white"/>
<path d="M969.164 483.168L1697.5 -326.71C1678.51 -343.707 1658.85 -360.371 1638.86 -376.036L968.164 482.168C968.498 482.501 968.831 482.835 969.164 483.168Z" fill="white"/>
<path d="M972.16 500.499L1896.08 1077.41C1909.74 1055.75 1922.4 1033.42 1934.39 1010.75L972.493 499.499C972.493 499.832 972.16 500.165 972.16 500.499Z" fill="white"/>
<path d="M965.835 506.165L1445.62 1484.35C1468.61 1473.02 1491.26 1461.02 1513.59 1448.02L966.501 505.832C966.501 505.832 966.168 506.165 965.835 506.165Z" fill="white"/>
<path d="M946.51 496.833L-118.675 724.799C-113.344 749.795 -107.014 775.124 -100.017 799.787L946.51 497.5C946.51 497.166 946.51 497.166 946.51 496.833Z" fill="white"/>
<path d="M960.837 507.164L1000.15 1596C1025.47 1595 1051.13 1593.33 1076.45 1590.67L962.17 507.164C961.837 507.164 961.17 507.164 960.837 507.164Z" fill="white"/>
<path d="M964.833 506.498L1302.35 1542.34C1326.67 1534.34 1351.32 1525.34 1374.98 1515.68L965.166 506.498C964.833 506.498 964.833 506.498 964.833 506.498Z" fill="white"/>
<path d="M969.167 503.832L1699.17 1312.38C1718.16 1295.38 1736.49 1277.38 1754.48 1259.05L970.166 502.832C969.833 503.165 969.5 503.498 969.167 503.832Z" fill="white"/>
<path d="M963.167 507.165L1152.75 1580C1178.07 1575.67 1203.39 1570 1228.05 1564L963.833 507.165C963.5 506.831 963.5 506.831 963.167 507.165Z" fill="white"/>
<path d="M970.832 502.165L1805.79 1201.73C1822.11 1182.06 1838.11 1161.73 1853.1 1141.4L971.499 501.165C971.499 501.498 971.166 501.832 970.832 502.165Z" fill="white"/>
<path d="M973.494 497.499L2021.02 796.121C2028.02 771.458 2034.35 746.128 2039.68 721.132L973.827 497.166C973.494 497.166 973.494 497.166 973.494 497.499Z" fill="white"/>
<path d="M973.826 495.833L2052.67 644.81C2056 619.481 2058.67 593.818 2060.67 568.489L973.826 494.833C973.826 495.166 973.826 495.5 973.826 495.833Z" fill="white"/>
<path d="M972.83 498.833L1968.38 941.099C1978.71 917.769 1988.37 893.44 1997.37 869.443L973.163 498.166C973.163 498.499 973.163 498.499 972.83 498.833Z" fill="white"/>
<path d="M967.501 505.165L1578.56 1407.03C1599.55 1392.7 1620.54 1377.37 1640.53 1361.7L968.5 504.498C968.167 504.831 967.834 505.165 967.501 505.165Z" fill="white"/>
<path d="M948.505 501.165L68.9029 1143.73C83.8961 1164.4 99.8889 1184.73 116.215 1204.06L948.839 501.832C949.172 501.832 948.839 501.498 948.505 501.165Z" fill="white"/>
<path d="M950.175 502.832L167.862 1261.38C185.521 1279.71 204.179 1297.71 223.17 1314.71L950.841 504.165C950.508 503.498 950.508 503.165 950.175 502.832Z" fill="white"/>
<path d="M951.837 504.498L282.14 1363.7C302.131 1379.37 323.121 1394.7 344.445 1408.69L952.837 504.831C952.503 505.165 952.17 504.831 951.837 504.498Z" fill="white"/>
<path d="M997.486 -609.333C985.158 -609.667 972.497 -610 960.169 -610H959.836C947.175 -610 934.181 -609.667 921.187 -609.333L959.17 479.502C959.503 479.502 960.169 479.502 960.836 479.502L997.486 -609.333Z" fill="white"/>
<path d="M946.838 498.166L-75.6997 873.109C-67.0369 897.106 -57.0415 921.102 -46.7128 944.432L947.171 498.833C947.171 498.499 946.838 498.499 946.838 498.166Z" fill="white"/>
<path d="M947.506 499.499L-12.7269 1013.75C-0.732285 1036.42 12.2619 1058.75 25.9223 1080.41L948.172 500.499C947.839 500.165 947.839 499.832 947.506 499.499Z" fill="white"/>
<path d="M956.5 506.832L695.618 1564.67C720.607 1570.67 745.929 1576 771.251 1580.67L957.167 507.165C956.833 506.832 956.5 506.832 956.5 506.832Z" fill="white"/>
<path d="M847.216 1591C872.538 1593.67 898.193 1595.33 923.849 1596L959.166 507.164C958.833 507.164 958.166 507.164 957.833 507.164L847.216 1591Z" fill="white"/>
<path d="M954.837 506.498L548.354 1517.35C572.01 1527.01 596.666 1535.68 620.988 1543.67L955.503 506.831C955.503 506.498 955.17 506.498 954.837 506.498Z" fill="white"/>
<path d="M953.506 505.832L409.751 1449.69C432.075 1462.35 454.731 1474.69 478.054 1486.02L954.505 506.165C954.172 506.165 953.839 505.832 953.506 505.832Z" fill="white"/>
</g>
</svg>
