<svg width="314" height="1049" viewBox="0 0 314 1049" fill="none" xmlns="http://www.w3.org/2000/svg">
<path d="M120.148 1.85812C212.523 44.9155 293.954 155.819 287.525 214.043C279.489 286.822 165.662 255.8 147.666 241.842C121.434 221.497 136.377 198.955 171.621 194.609C185.584 192.887 265.349 192.708 271.016 271.109C276.684 349.511 162.98 438.504 108.947 476.816C54.9144 515.128 -0.0995177 572.068 1.35468 643.747C4.77848 812.511 98.5519 839.665 165.837 869.606C260.458 911.71 294.137 941.889 331.618 1047.78" stroke="url(#paint0_linear_335_15)" stroke-width="2"/>
<path d="M120.148 1.85812C212.523 44.9155 293.954 155.819 287.525 214.043C279.489 286.822 165.662 255.8 147.666 241.842C121.434 221.497 136.377 198.955 171.621 194.609C185.584 192.887 265.349 192.708 271.016 271.109C276.684 349.511 162.98 438.504 108.947 476.816C54.9144 515.128 -0.0995177 572.068 1.35468 643.747C4.77848 812.511 98.5519 839.665 165.837 869.606C260.458 911.71 294.137 941.889 331.618 1047.78" stroke="url(#paint1_linear_335_15)" stroke-width="2"/>
<defs>
<linearGradient id="paint0_linear_335_15" x1="35.5078" y1="-151.189" x2="-318.454" y2="121.006" gradientUnits="userSpaceOnUse">
<stop stop-color="white"/>
<stop offset="0.30553" stop-color="#A36FE4"/>
<stop offset="0.578125" stop-color="#878ED2"/>
<stop offset="1" stop-color="#7DC1D0"/>
</linearGradient>
<linearGradient id="paint1_linear_335_15" x1="149.353" y1="1.26562" x2="170.651" y2="1051.05" gradientUnits="userSpaceOnUse">
<stop stop-color="#FF6F61"/>
<stop offset="0.5" stop-color="#FFC107"/>
<stop offset="1" stop-color="#4A5D73"/>
</linearGradient>
</defs>
</svg>
