<svg width="18" height="18" viewBox="0 0 18 18" fill="none" xmlns="http://www.w3.org/2000/svg">
<path d="M13.1538 -0.000976562H4.84615C3.5613 0.000397863 2.32946 0.511415 1.42092 1.41995C0.512391 2.32848 0.00137443 3.56032 0 4.84518V13.1529C0.00137443 14.4377 0.512391 15.6696 1.42092 16.5781C2.32946 17.4866 3.5613 17.9976 4.84615 17.999H13.1538C14.4387 17.9976 15.6705 17.4866 16.5791 16.5781C17.4876 15.6696 17.9986 14.4377 18 13.1529V4.84518C17.9986 3.56032 17.4876 2.32848 16.5791 1.41995C15.6705 0.511415 14.4387 0.000397863 13.1538 -0.000976562ZM9 13.1529C8.17845 13.1529 7.37534 12.9093 6.69225 12.4528C6.00915 11.9964 5.47674 11.3476 5.16235 10.5886C4.84795 9.82962 4.76569 8.99442 4.92597 8.18865C5.08625 7.38288 5.48186 6.64274 6.06279 6.06181C6.64371 5.48089 7.38386 5.08527 8.18962 4.92499C8.99539 4.76472 9.83059 4.84698 10.5896 5.16137C11.3486 5.47577 11.9974 6.00817 12.4538 6.69127C12.9102 7.37437 13.1538 8.17747 13.1538 8.99902C13.1527 10.1003 12.7147 11.1562 11.9359 11.935C11.1572 12.7137 10.1013 13.1517 9 13.1529ZM14.1923 4.84518C13.9869 4.84518 13.7861 4.78427 13.6154 4.67017C13.4446 4.55606 13.3115 4.39387 13.2329 4.20412C13.1543 4.01436 13.1337 3.80556 13.1738 3.60412C13.2139 3.40268 13.3128 3.21764 13.458 3.07241C13.6032 2.92718 13.7883 2.82828 13.9897 2.78821C14.1912 2.74814 14.4 2.7687 14.5897 2.8473C14.7795 2.9259 14.9416 3.059 15.0558 3.22978C15.1699 3.40055 15.2308 3.60133 15.2308 3.80672C15.2308 4.08213 15.1214 4.34627 14.9266 4.54102C14.7319 4.73577 14.4677 4.84518 14.1923 4.84518ZM11.7692 8.99902C11.7692 9.54673 11.6068 10.0821 11.3025 10.5375C10.9982 10.9929 10.5657 11.3479 10.0597 11.5575C9.55373 11.7671 8.99693 11.8219 8.45975 11.715C7.92257 11.6082 7.42914 11.3444 7.04186 10.9572C6.65457 10.5699 6.39083 10.0765 6.28398 9.53927C6.17713 9.0021 6.23197 8.4453 6.44156 7.93928C6.65116 7.43327 7.0061 7.00078 7.4615 6.69649C7.9169 6.39221 8.4523 6.22979 9 6.22979C9.73445 6.22979 10.4388 6.52155 10.9581 7.04088C11.4775 7.56021 11.7692 8.26458 11.7692 8.99902Z" fill="#FF6F61"/>
</svg>
