<svg width="50" height="50" viewBox="0 0 50 50" fill="none" xmlns="http://www.w3.org/2000/svg">
<path fill-rule="evenodd" clip-rule="evenodd" d="M9.30233 18.7279V15.6977C9.30233 11.5344 10.9562 7.54163 13.9001 4.59774C16.844 1.65386 20.8367 0 25 0C29.1633 0 33.156 1.65386 36.0999 4.59774C39.0438 7.54163 40.6977 11.5344 40.6977 15.6977V18.7279C41.2248 18.7636 41.7225 18.8132 42.1907 18.8767C44.2837 19.1558 46.0465 19.7605 47.4465 21.1581C48.8465 22.5581 49.4465 24.3209 49.7302 26.414C50 28.4302 50 30.9953 50 34.1744V34.4302C50 37.6093 50 40.1744 49.7302 42.1907C49.4465 44.2837 48.8465 46.0465 47.4465 47.4465C46.0465 48.8465 44.2837 49.4465 42.1907 49.7302C40.1744 50 37.6093 50 34.4302 50H15.5698C12.3907 50 9.82558 50 7.8093 49.7302C5.71628 49.4465 3.95349 48.8465 2.55349 47.4465C1.15349 46.0465 0.553488 44.2837 0.272093 42.1907C-3.46539e-08 40.1744 0 37.6093 0 34.4302V34.1744C0 30.9953 -3.46539e-08 28.4302 0.272093 26.414C0.551163 24.3209 1.15581 22.5581 2.55349 21.1581C3.95349 19.7581 5.71628 19.1581 7.8093 18.8767C8.27597 18.8132 8.77364 18.7636 9.30233 18.7279ZM12.7907 15.6977C12.7907 12.4596 14.077 9.35408 16.3667 7.06439C18.6564 4.7747 21.7619 3.48837 25 3.48837C28.2381 3.48837 31.3436 4.7747 33.6333 7.06439C35.923 9.35408 37.2093 12.4596 37.2093 15.6977V18.6116C36.3411 18.6054 35.4147 18.6031 34.4302 18.6047H15.5698C14.5868 18.6047 13.6605 18.607 12.7907 18.6116V15.6977ZM5.02093 23.6256C5.66512 22.9814 6.56744 22.5628 8.27674 22.3326C10.0302 22.0977 12.3605 22.093 15.6977 22.093H34.3023C37.6395 22.093 39.9674 22.0977 41.7256 22.3326C43.4326 22.5628 44.3349 22.9837 44.9791 23.6256C45.6233 24.2698 46.0419 25.1721 46.2721 26.8814C46.507 28.6372 46.5116 30.9651 46.5116 34.3023C46.5116 37.6395 46.507 39.9674 46.2721 41.7256C46.0419 43.4326 45.6209 44.3349 44.9791 44.9791C44.3349 45.6233 43.4326 46.0419 41.7233 46.2721C39.9674 46.507 37.6395 46.5116 34.3023 46.5116H15.6977C12.3605 46.5116 10.0302 46.507 8.27442 46.2721C6.56744 46.0419 5.66512 45.6209 5.02093 44.9791C4.37674 44.3349 3.95814 43.4326 3.72791 41.7233C3.49302 39.9674 3.48837 37.6395 3.48837 34.3023C3.48837 30.9651 3.49302 28.6349 3.72791 26.8791C3.95814 25.1721 4.37907 24.2698 5.02093 23.6256Z" fill="white"/>
</svg>
