<svg width="29" height="41" viewBox="0 0 29 41" fill="none" xmlns="http://www.w3.org/2000/svg">
<path d="M25.7143 40.1577H2.85714C2.09938 40.1577 1.37266 39.8567 0.836838 39.3209C0.301019 38.7851 0 38.0583 0 37.3006V3.01486C0 2.2571 0.301019 1.53037 0.836838 0.994552C1.37266 0.458734 2.09938 0.157715 2.85714 0.157715H25.7143C26.472 0.157715 27.1988 0.458734 27.7346 0.994552C28.2704 1.53037 28.5714 2.2571 28.5714 3.01486V26.7549L21.4286 23.1834L14.2857 26.7549V3.01486H2.85714V37.3006H25.7143V31.5863H28.5714V37.3006C28.5703 38.058 28.2689 38.7841 27.7333 39.3196C27.1978 39.8552 26.4717 40.1566 25.7143 40.1577ZM21.4286 19.9891L25.7143 22.132V3.01486H17.1429V22.132L21.4286 19.9891Z" fill="white"/>
</svg>
