<svg width="40" height="41" viewBox="0 0 40 41" fill="none" xmlns="http://www.w3.org/2000/svg">
<g clip-path="url(#clip0_335_61)">
<path d="M31.668 11.8245C31.668 11.8245 23.3346 23.4911 10.8346 23.4911M10.8346 23.4911C7.5013 23.4911 1.66797 25.1578 1.66797 31.8245V38.4911H20.0013V31.8245C20.0013 27.6578 25.0013 30.1578 31.668 18.4911L29.168 15.9911M10.8346 23.4911C12.3817 23.4911 13.8655 22.8765 14.9594 21.7826C16.0534 20.6886 16.668 19.2049 16.668 17.6578C16.668 16.1107 16.0534 14.627 14.9594 13.533C13.8655 12.439 12.3817 11.8245 10.8346 11.8245C9.28754 11.8245 7.80381 12.439 6.70985 13.533C5.61588 14.627 5.0013 16.1107 5.0013 17.6578C5.0013 19.2049 5.61588 20.6886 6.70985 21.7826C7.80381 22.8765 9.28754 23.4911 10.8346 23.4911ZM5.0013 8.49113V3.49113H38.3346V26.8245H33.3346M18.3346 1.82446H25.0013V5.1578H18.3346V1.82446Z" stroke="white" stroke-width="3.33333"/>
</g>
<defs>
<clipPath id="clip0_335_61">
<rect width="40" height="40" fill="white" transform="translate(0 0.157715)"/>
</clipPath>
</defs>
</svg>
