<svg width="39" height="41" viewBox="0 0 39 41" fill="none" xmlns="http://www.w3.org/2000/svg">
<path d="M8.27586 11.1922C7.18465 11.1922 6.11795 10.8686 5.21065 10.2624C4.30334 9.65613 3.59618 8.79446 3.1786 7.78631C2.76101 6.77817 2.65175 5.66884 2.86463 4.5986C3.07752 3.52836 3.60298 2.54528 4.37458 1.77368C5.14618 1.00208 6.12926 0.476614 7.1995 0.26373C8.26974 0.0508456 9.37908 0.160105 10.3872 0.577692C11.3954 0.995279 12.257 1.70244 12.8633 2.60974C13.4695 3.51705 13.7931 4.58375 13.7931 5.67496C13.7931 7.13822 13.2118 8.54155 12.1771 9.57624C11.1425 10.6109 9.73913 11.1922 8.27586 11.1922ZM8.27586 2.91634C7.73026 2.91634 7.19691 3.07813 6.74325 3.38125C6.2896 3.68437 5.93602 4.11521 5.72723 4.61928C5.51844 5.12335 5.4638 5.67802 5.57025 6.21314C5.67669 6.74826 5.93942 7.2398 6.32522 7.6256C6.71102 8.0114 7.20256 8.27413 7.73768 8.38057C8.2728 8.48701 8.82747 8.43239 9.33154 8.22359C9.83561 8.0148 10.2664 7.66122 10.5696 7.20757C10.8727 6.75391 11.0345 6.22056 11.0345 5.67496C11.0345 4.94333 10.7438 4.24166 10.2265 3.72432C9.70916 3.20698 9.00749 2.91634 8.27586 2.91634ZM30.3448 11.1922C29.2536 11.1922 28.1869 10.8686 27.2796 10.2624C26.3723 9.65613 25.6651 8.79446 25.2476 7.78631C24.83 6.77817 24.7207 5.66884 24.9336 4.5986C25.1465 3.52836 25.6719 2.54528 26.4435 1.77368C27.2151 1.00208 28.1982 0.476614 29.2685 0.26373C30.3387 0.0508456 31.448 0.160105 32.4562 0.577692C33.4643 0.995279 34.326 1.70244 34.9322 2.60974C35.5385 3.51705 35.8621 4.58375 35.8621 5.67496C35.8621 7.13822 35.2808 8.54155 34.2461 9.57624C33.2114 10.6109 31.8081 11.1922 30.3448 11.1922ZM30.3448 2.91634C29.7992 2.91634 29.2659 3.07813 28.8122 3.38125C28.3586 3.68437 28.005 4.11521 27.7962 4.61928C27.5874 5.12335 27.5328 5.67802 27.6392 6.21314C27.7457 6.74826 28.0084 7.2398 28.3942 7.6256C28.78 8.0114 29.2715 8.27413 29.8066 8.38057C30.3418 8.48701 30.8964 8.43239 31.4005 8.22359C31.9046 8.0148 32.3354 7.66122 32.6385 7.20757C32.9417 6.75391 33.1034 6.22056 33.1034 5.67496C33.1034 4.94333 32.8128 4.24166 32.2955 3.72432C31.7781 3.20698 31.0765 2.91634 30.3448 2.91634ZM33.1034 40.1577H27.5862C26.8546 40.1577 26.1529 39.8671 25.6356 39.3497C25.1182 38.8324 24.8276 38.1307 24.8276 37.3991V27.7439H27.5862V37.3991H33.1034V24.9853H35.8621V16.7094C35.8621 16.3436 35.7167 15.9928 35.4581 15.7341C35.1994 15.4755 34.8486 15.3301 34.4828 15.3301H25.6276L19.3103 26.3646L12.9931 15.3301H4.13793C3.77211 15.3301 3.42128 15.4755 3.16261 15.7341C2.90394 15.9928 2.75862 16.3436 2.75862 16.7094V24.9853H5.51724V37.3991H11.0345V27.7439H13.7931V37.3991C13.7931 38.1307 13.5025 38.8324 12.9851 39.3497C12.4678 39.8671 11.7661 40.1577 11.0345 40.1577H5.51724C4.78561 40.1577 4.08394 39.8671 3.5666 39.3497C3.04926 38.8324 2.75862 38.1307 2.75862 37.3991V27.7439C2.02699 27.7439 1.32532 27.4533 0.807981 26.9359C0.290639 26.4186 0 25.7169 0 24.9853V16.7094C0 15.612 0.435959 14.5595 1.21197 13.7835C1.98798 13.0075 3.04048 12.5715 4.13793 12.5715H14.5931L19.3103 20.8474L24.0276 12.5715H34.4828C35.5802 12.5715 36.6327 13.0075 37.4087 13.7835C38.1847 14.5595 38.6207 15.612 38.6207 16.7094V24.9853C38.6207 25.7169 38.33 26.4186 37.8127 26.9359C37.2954 27.4533 36.5937 27.7439 35.8621 27.7439V37.3991C35.8621 38.1307 35.5714 38.8324 35.0541 39.3497C34.5367 39.8671 33.8351 40.1577 33.1034 40.1577Z" fill="white"/>
</svg>
