<svg width="1439" height="548" viewBox="0 0 1439 548" fill="none" xmlns="http://www.w3.org/2000/svg">
<g clip-path="url(#clip0_335_18)">
<g opacity="0.05">
<path d="M716.193 263.037L393.736 -533.488C375.077 -525.865 356.419 -517.453 338.285 -508.777L715.667 263.3C715.667 263.3 715.93 263.3 716.193 263.037Z" fill="white"/>
<path d="M714.874 263.825L284.407 -480.124C267.062 -470.135 249.717 -459.094 232.898 -447.79L714.086 264.088C714.349 264.088 714.612 263.825 714.874 263.825Z" fill="white"/>
<path d="M722.496 262.774L870.19 -583.961C850.217 -587.379 829.981 -590.271 810.008 -592.374L721.707 262.511C721.97 262.774 722.233 262.774 722.496 262.774Z" fill="white"/>
<path d="M718.293 262.511L628.941 -592.11C608.968 -590.007 588.732 -587.116 568.759 -583.698L717.242 262.774C717.767 262.774 718.03 262.774 718.293 262.511Z" fill="white"/>
<path d="M716.978 262.774L509.365 -571.08C489.655 -566.085 469.945 -560.565 450.761 -554.256L716.452 263.037C716.715 263.037 716.978 262.774 716.978 262.774Z" fill="white"/>
<path d="M713.562 264.614L184.019 -412.038C168.251 -399.683 152.746 -386.539 137.767 -373.132L712.774 265.403C713.037 265.14 713.3 264.877 713.562 264.614Z" fill="white"/>
<path d="M709.356 270.66L-131.08 92.9534C-135.285 112.669 -138.702 132.911 -141.592 152.89L709.356 271.449C709.356 271.186 709.356 270.923 709.356 270.66Z" fill="white"/>
<path d="M709.618 269.609L-97.7048 -24.028C-104.538 -5.10065 -110.845 14.6153 -116.626 33.8055L709.356 270.134C709.618 270.134 709.618 269.871 709.618 269.609Z" fill="white"/>
<path d="M710.145 268.557L-48.0344 -135.489C-57.4953 -117.613 -66.4305 -99.2113 -74.8401 -80.8098L709.882 269.083C709.882 269.083 710.145 268.82 710.145 268.557Z" fill="white"/>
<path d="M712.248 265.929L94.1417 -331.071C80.2132 -316.612 66.5476 -301.365 53.6704 -286.118L711.46 266.717C711.723 266.454 711.986 266.192 712.248 265.929Z" fill="white"/>
<path d="M710.935 267.243L16.3537 -238.275C4.52771 -221.976 -7.03551 -205.152 -17.5475 -188.065L710.41 268.031C710.673 267.768 710.935 267.506 710.935 267.243Z" fill="white"/>
<path d="M730.121 269.083L1514.58 -81.5985C1506.43 -100 1497.24 -118.402 1487.77 -136.277L729.858 268.557C730.121 268.82 730.121 269.083 730.121 269.083Z" fill="white"/>
<path d="M730.905 273.552L1590 272.501C1590 252.522 1589.21 232.28 1587.9 212.301L730.905 272.501C730.905 272.764 730.905 273.026 730.905 273.552Z" fill="white"/>
<path d="M729.593 268.031L1457.55 -188.59C1446.78 -205.678 1435.48 -222.502 1423.65 -238.801L729.068 267.243C729.331 267.506 729.331 267.768 729.593 268.031Z" fill="white"/>
<path d="M709.095 274.603V273.289C709.095 272.763 709.095 272.5 709.095 271.975L-147.898 213.352C-149.212 232.806 -150 252.784 -150 272.763C-150 273.815 -150 274.866 -150 276.181L709.095 273.289V274.603L-147.898 335.854C-146.584 355.833 -144.218 376.338 -141.59 396.054L709.358 275.655C709.095 275.392 709.095 274.866 709.095 274.603Z" fill="white"/>
<path d="M730.645 270.134L1556.36 32.754C1550.84 13.3009 1544.54 -6.15216 1537.44 -25.3424L730.382 269.609C730.382 269.871 730.645 270.134 730.645 270.134Z" fill="white"/>
<path d="M730.906 271.449L1581.59 151.839C1578.7 131.86 1575.28 111.618 1571.08 91.9022L730.643 270.66C730.906 270.923 730.906 271.186 730.906 271.449Z" fill="white"/>
<path d="M723.547 263.037L988.187 -554.519C969.002 -560.828 949.292 -566.349 929.582 -571.343L723.021 262.774C723.284 262.774 723.284 263.037 723.547 263.037Z" fill="white"/>
<path d="M728.541 266.717L1386.07 -286.645C1373.19 -301.892 1359.53 -317.139 1345.6 -331.597L728.015 265.665C728.015 266.191 728.278 266.454 728.541 266.717Z" fill="white"/>
<path d="M725.914 264.089L1206.58 -448.315C1189.76 -459.619 1172.67 -470.397 1155.07 -480.387L725.126 263.826C725.388 263.826 725.651 264.089 725.914 264.089Z" fill="white"/>
<path d="M724.599 263.3L1101.19 -509.041C1083.06 -517.979 1064.4 -526.128 1045.48 -533.751L724.073 263.3C724.336 263.3 724.336 263.3 724.599 263.3Z" fill="white"/>
<path d="M727.228 265.403L1301.71 -373.395C1286.73 -386.802 1271.23 -399.946 1255.46 -412.301L726.44 264.614C726.702 264.877 726.965 265.14 727.228 265.403Z" fill="white"/>
<path d="M729.591 279.072L1458.34 734.117C1469.11 717.03 1479.1 699.417 1488.56 681.541L729.854 278.284C729.854 278.546 729.591 278.809 729.591 279.072Z" fill="white"/>
<path d="M724.602 283.542L1103.03 1055.09C1121.17 1046.16 1139.04 1036.69 1156.65 1026.44L725.128 283.279C725.128 283.279 724.865 283.542 724.602 283.542Z" fill="white"/>
<path d="M709.36 276.181L-130.814 455.991C-126.609 475.707 -121.615 495.686 -116.097 515.139L709.36 276.707C709.36 276.444 709.36 276.444 709.36 276.181Z" fill="white"/>
<path d="M720.66 284.33L751.671 1143.16C771.643 1142.37 791.879 1141.05 811.852 1138.95L721.711 284.33C721.449 284.33 720.923 284.33 720.66 284.33Z" fill="white"/>
<path d="M723.812 283.804L990.029 1100.83C1009.21 1094.53 1028.66 1087.43 1047.32 1079.8L724.074 283.804C723.812 283.804 723.812 283.804 723.812 283.804Z" fill="white"/>
<path d="M727.23 281.701L1303.03 919.447C1318.01 906.04 1332.46 891.845 1346.65 877.386L728.019 280.912C727.756 281.175 727.493 281.438 727.23 281.701Z" fill="white"/>
<path d="M722.498 284.33L872.031 1130.54C892.004 1127.12 911.977 1122.65 931.424 1117.92L723.023 284.33C722.76 284.067 722.76 284.067 722.498 284.33Z" fill="white"/>
<path d="M728.544 280.387L1387.12 832.171C1400 816.661 1412.61 800.625 1424.44 784.59L729.07 279.598C729.07 279.861 728.807 280.124 728.544 280.387Z" fill="white"/>
<path d="M730.643 276.706L1556.89 512.246C1562.41 492.793 1567.4 472.815 1571.61 453.099L730.906 276.444C730.643 276.444 730.643 276.443 730.643 276.706Z" fill="white"/>
<path d="M730.905 275.392L1581.85 392.899C1584.48 372.92 1586.58 352.679 1588.16 332.7L730.905 274.604C730.905 274.866 730.905 275.129 730.905 275.392Z" fill="white"/>
<path d="M730.12 277.758L1515.37 626.599C1523.51 608.198 1531.14 589.007 1538.23 570.08L730.383 277.232C730.383 277.495 730.383 277.495 730.12 277.758Z" fill="white"/>
<path d="M725.916 282.753L1207.89 994.105C1224.45 982.801 1241.01 970.708 1256.77 958.353L726.705 282.227C726.442 282.49 726.179 282.753 725.916 282.753Z" fill="white"/>
<path d="M710.933 279.598L17.1401 786.43C28.9661 802.729 41.5806 818.764 54.4578 834.011L711.196 280.124C711.459 280.124 711.196 279.861 710.933 279.598Z" fill="white"/>
<path d="M712.25 280.912L95.1949 879.226C109.123 893.685 123.84 907.88 138.82 921.287L712.776 281.964C712.513 281.438 712.513 281.175 712.25 280.912Z" fill="white"/>
<path d="M713.561 282.227L185.332 959.931C201.1 972.286 217.657 984.378 234.476 995.419L714.35 282.49C714.087 282.753 713.824 282.49 713.561 282.227Z" fill="white"/>
<path d="M749.567 -596.317C739.844 -596.58 729.857 -596.842 720.134 -596.842H719.871C709.884 -596.842 699.635 -596.58 689.386 -596.317L719.345 262.511C719.608 262.511 720.133 262.511 720.659 262.511L749.567 -596.317Z" fill="white"/>
<path d="M709.618 277.232L-96.9164 572.972C-90.0835 591.899 -82.1995 610.827 -74.0527 629.228L709.881 277.758C709.881 277.495 709.618 277.495 709.618 277.232Z" fill="white"/>
<path d="M710.145 278.284L-47.246 683.907C-37.7852 701.783 -27.536 719.396 -16.7612 736.483L710.671 279.072C710.408 278.809 710.408 278.546 710.145 278.284Z" fill="white"/>
<path d="M717.24 284.067L511.467 1118.45C531.177 1123.18 551.15 1127.39 571.123 1131.07L717.765 284.33C717.502 284.067 717.24 284.067 717.24 284.067Z" fill="white"/>
<path d="M631.041 1139.21C651.014 1141.32 671.25 1142.63 691.485 1143.16L719.342 284.33C719.079 284.33 718.554 284.33 718.291 284.33L631.041 1139.21Z" fill="white"/>
<path d="M715.928 283.804L395.311 1081.12C413.97 1088.74 433.417 1095.58 452.602 1101.89L716.453 284.067C716.453 283.804 716.19 283.804 715.928 283.804Z" fill="white"/>
<path d="M714.878 283.279L285.987 1027.75C303.595 1037.74 321.465 1047.47 339.861 1056.41L715.666 283.542C715.403 283.542 715.14 283.279 714.878 283.279Z" fill="white"/>
</g>
</g>
<defs>
<clipPath id="clip0_335_18">
<rect width="1439" height="547" fill="white" transform="translate(0 0.157593)"/>
</clipPath>
</defs>
</svg>
