<svg width="44" height="44" viewBox="0 0 44 44" fill="none" xmlns="http://www.w3.org/2000/svg">
<path d="M10 21.9864C21.2735 0.977252 35.3114 0.735028 40.9181 3.2395C43.4226 8.84845 43.1804 22.8842 22.1712 34.1576C21.9535 32.9043 20.7423 29.6242 17.6379 26.5198C14.5334 23.4153 11.2533 22.2042 10 21.9864Z" stroke="white" stroke-width="3.33337" stroke-linecap="round" stroke-linejoin="round"/>
<path d="M25.0003 33.1576C29.087 35.1576 29.5225 38.7443 30.0892 42.1577C30.0892 42.1577 38.6449 35.8332 33.1715 27.1575M11.0001 19.3286C9.00008 15.2418 5.41337 14.8063 2 14.2396C2 14.2396 8.32674 5.68395 17.0002 11.1573M8.70674 28.6287C7.56895 29.7642 5.6356 33.0643 7.00006 37.1576C11.0957 38.5221 14.3935 36.5887 15.5335 35.4532M33.7781 14.2685C33.7781 13.2371 33.3684 12.2479 32.6391 11.5186C31.9098 10.7893 30.9206 10.3796 29.8892 10.3796C28.8578 10.3796 27.8686 10.7893 27.1393 11.5186C26.41 12.2479 26.0003 13.2371 26.0003 14.2685C26.0003 15.2999 26.41 16.2891 27.1393 17.0184C27.8686 17.7477 28.8578 18.1574 29.8892 18.1574C30.9206 18.1574 31.9098 17.7477 32.6391 17.0184C33.3684 16.2891 33.7781 15.2999 33.7781 14.2685Z" stroke="white" stroke-width="3.33337" stroke-linecap="round" stroke-linejoin="round"/>
</svg>
