<svg width="20" height="20" viewBox="0 0 20 20" fill="none" xmlns="http://www.w3.org/2000/svg">
<path d="M7.04 19.539C8 19.829 8.97 19.999 10 19.999C12.6522 19.999 15.1957 18.9455 17.0711 17.0701C18.9464 15.1947 20 12.6512 20 9.99902C20 8.6858 19.7413 7.38544 19.2388 6.17219C18.7362 4.95893 17.9997 3.85654 17.0711 2.92796C16.1425 1.99937 15.0401 1.26278 13.8268 0.760228C12.6136 0.257681 11.3132 -0.000976562 10 -0.000976562C8.68678 -0.000976562 7.38642 0.257681 6.17317 0.760228C4.95991 1.26278 3.85752 1.99937 2.92893 2.92796C1.05357 4.80332 0 7.34686 0 9.99902C0 14.249 2.67 17.899 6.44 19.339C6.35 18.559 6.26 17.269 6.44 16.379L7.59 11.439C7.59 11.439 7.3 10.859 7.3 9.93902C7.3 8.55902 8.16 7.52902 9.14 7.52902C10 7.52902 10.4 8.15902 10.4 8.96902C10.4 9.82902 9.83 11.059 9.54 12.239C9.37 13.219 10.06 14.079 11.06 14.079C12.84 14.079 14.22 12.179 14.22 9.49902C14.22 7.09902 12.5 5.45902 10.03 5.45902C7.21 5.45902 5.55 7.55902 5.55 9.76902C5.55 10.629 5.83 11.499 6.29 12.069C6.38 12.129 6.38 12.209 6.35 12.359L6.06 13.449C6.06 13.619 5.95 13.679 5.78 13.559C4.5 12.999 3.76 11.179 3.76 9.70902C3.76 6.54902 6 3.67902 10.32 3.67902C13.76 3.67902 16.44 6.14902 16.44 9.42902C16.44 12.869 14.31 15.629 11.26 15.629C10.29 15.629 9.34 15.109 9 14.499L8.33 16.869C8.1 17.729 7.47 18.879 7.04 19.569V19.539Z" fill="#FF6F61"/>
</svg>
