<svg width="1829" height="1358" viewBox="0 0 1829 1358" fill="none" xmlns="http://www.w3.org/2000/svg">
<path d="M494.5 69.6579C392.893 -62.3422 221.607 27.813 155.5 79.1571C56.0067 156.433 -16.4192 346.864 5.26762 416.912C26.9545 486.96 120.902 487.853 183.254 474.729C204.384 470.282 259.435 458.051 296.692 412.464M296.692 412.464C328.944 383.556 346.739 335.745 330.057 329.629C313.341 323.502 296.692 349.087 296.692 412.464ZM296.692 412.464C296.692 446.377 295.438 555.575 392.893 644.847C505.775 748.252 585.294 774.937 652.022 798.842C812 856.154 904 1032.16 1130 1096.16C1174.8 1102.02 1405.67 1105.01 1582.5 1071.66C1723.96 1044.97 1896.5 1141.66 1861 1357.16" stroke="url(#paint0_linear_335_11)" stroke-width="2"/>
<defs>
<linearGradient id="paint0_linear_335_11" x1="-152.069" y1="166.772" x2="2067.06" y2="610.651" gradientUnits="userSpaceOnUse">
<stop stop-color="#4A5D73"/>
<stop offset="0.5" stop-color="#FFC107"/>
<stop offset="1" stop-color="#FF6F61"/>
</linearGradient>
</defs>
</svg>
