<svg width="128" height="137" viewBox="0 0 128 137" fill="none" xmlns="http://www.w3.org/2000/svg">
<mask id="mask0_335_277" style="mask-type:luminance" maskUnits="userSpaceOnUse" x="0" y="0" width="128" height="137">
<path d="M-0.000651981 17.7651L108.746 0.157715L127.951 118.773L19.2045 136.38L-0.000651981 17.7651Z" fill="white"/>
</mask>
<g mask="url(#mask0_335_277)">
<path d="M30.2032 37.6821C34.2621 47.2196 40.5854 56.0507 47.1004 63.9671C62.7305 82.8453 83.1245 97.1461 106.316 105.217C108.618 106 107.289 109.545 104.987 108.762C81.5092 100.602 60.818 86.1454 44.8247 67.1221C37.8372 58.8064 31.0756 49.3667 26.7214 39.2653C25.8163 37.0331 29.2318 35.4609 30.2032 37.6821Z" fill="#21272E"/>
<path d="M31.4511 47.471C33.5552 36.12 35.296 24.624 36.7719 13.171C37.091 10.944 39.9691 11.09 40.4895 13.045C44.6292 28.958 54.1227 43.9361 62.9381 57.6649C64.8329 60.5525 64.5781 63.1764 64.7383 66.6846C65.0108 72.1456 65.2833 77.6066 65.5559 83.0676C65.6164 84.2812 64.8393 85.3585 63.4612 85.2418C58.1364 84.6767 52.8223 84.1778 47.4976 83.6127C43.8374 83.2538 37.9449 83.8001 34.8114 81.6568C29.754 78.126 25.3381 71.8406 21.5769 67.0804C14.0098 57.7031 7.31815 47.4365 2.9142 36.188C2.09674 34.077 4.59575 32.721 6.12217 34.173C13.2156 41.0445 23.5762 45.008 33.4222 45.7926C35.826 45.9471 35.4223 49.7505 33.0078 49.5298C22.1363 48.7073 11.0061 44.1887 3.17723 36.553C4.22805 35.907 5.27887 35.261 6.38519 34.538C10.6138 45.5436 17.1193 55.5005 24.5111 64.6343C28.5908 69.6828 33.6444 74.0299 37.6579 79.089C37.9979 79.5098 36.081 79.0045 37.1192 78.7005C37.7046 78.5378 38.9825 78.8746 39.6107 78.9768C42.8628 79.3337 46.1042 79.6245 49.3564 79.9815C54.1961 80.4892 59.0358 80.9969 63.9418 81.4939C63.2435 82.2186 62.5453 82.9434 61.8471 83.6681C61.5745 78.2071 61.302 72.7461 61.0295 67.2851C60.8958 65.1998 60.95 63.0162 60.6838 60.9524C60.8125 61.7471 61.242 61.8815 60.5514 60.9738C60.0146 60.1772 59.4671 59.3144 58.9966 58.507C50.2259 44.635 40.9526 29.757 36.7914 13.712C38.005 13.651 39.2955 13.646 40.5091 13.585C38.967 25.049 37.2154 36.4789 35.1883 47.8854C34.7582 50.2658 31.021 49.8514 31.4511 47.471Z" fill="#21272E"/>
<path d="M110.192 90.5208L95.6094 119.252L127.951 118.773L110.192 90.5208Z" fill="#21272E"/>
</g>
</svg>
