<svg width="131" height="23" viewBox="0 0 131 23" fill="none" xmlns="http://www.w3.org/2000/svg">
<path d="M11.5315 17.6482L4.41289 22.1577L6.44217 13.944L0 8.53253L8.40703 7.98495L11.5315 0.157715L14.6881 7.98495L23.1274 8.53253L16.6208 13.944L18.6823 22.1577L11.5315 17.6482Z" fill="#EBAC1D"/>
<path d="M38.4621 17.6482L31.3113 22.1577L33.3728 13.944L26.8984 8.53253L35.3377 7.98495L38.4621 0.157715L41.6188 7.98495L50.0258 8.53253L43.5515 13.944L45.6129 22.1577L38.4621 17.6482Z" fill="#EBAC1D"/>
<path d="M65.3879 17.6482L58.2371 22.1577L60.2986 13.944L53.8242 8.53253L62.2635 7.98495L65.3879 0.157715L68.5446 7.98495L76.9516 8.53253L70.4772 13.944L72.5387 22.1577L65.3879 17.6482Z" fill="#EBAC1D"/>
<path d="M92.3176 17.6482L85.1668 22.1577L87.2283 13.944L80.7539 8.53253L89.1932 7.98495L92.3176 0.157715L95.4743 7.98495L103.881 8.53253L97.4069 13.944L99.4684 22.1577L92.3176 17.6482Z" fill="#EBAC1D"/>
<path d="M119.263 17.6482L112.112 22.1577L114.174 13.944L107.699 8.53253L116.138 7.98495L119.263 0.157715L122.42 7.98495L130.827 8.53253L124.352 13.944L126.414 22.1577L119.263 17.6482Z" fill="#EBAC1D"/>
</svg>
