<svg width="106" height="142" viewBox="0 0 106 142" fill="none" xmlns="http://www.w3.org/2000/svg">
<mask id="mask0_335_284" style="mask-type:luminance" maskUnits="userSpaceOnUse" x="0" y="0" width="106" height="142">
<path d="M106 0.157715H0V141.158H106V0.157715Z" fill="white"/>
</mask>
<g mask="url(#mask0_335_284)">
<path d="M46.5156 141.158C51.005 140.846 54.9332 137.666 54.8085 132.864C54.6838 128.311 50.2568 125.131 45.8921 125.692C37.1003 126.877 36.9756 141.22 46.5156 141.158C48.7603 141.158 48.7603 137.603 46.5156 137.666C41.5274 137.728 41.5897 130.307 45.9544 129.247C48.3238 128.686 51.005 130.182 51.2544 132.677C51.5662 135.545 49.1344 137.416 46.5156 137.603C44.2709 137.79 44.2709 141.345 46.5156 141.158Z" fill="#4A5D73"/>
<path d="M2.2467 110.289C6.17493 120.392 23.135 113.22 18.8326 103.055C14.655 92.9521 -0.621541 101.059 2.2467 110.289C2.93258 112.409 6.29964 111.536 5.61375 109.354C4.11728 104.552 12.2855 98.6271 15.3408 103.803C16.6502 106.048 15.9643 108.917 13.8443 110.414C11.7243 111.91 6.86081 112.409 5.61375 109.354C4.86552 107.233 1.43611 108.169 2.2467 110.289Z" fill="#4A5D73"/>
<path d="M50.1915 107.607C58.7962 113.033 69.0844 96.7561 58.4844 92.7649C50.0668 89.5845 42.6468 102.307 50.1915 107.607C52.0621 108.917 53.808 105.861 51.9374 104.552C48.0715 101.87 52.4362 94.8852 56.5515 95.8207C63.4103 97.3797 56.7386 107.545 51.9374 104.552C50.0044 103.367 48.2586 106.422 50.1915 107.607Z" fill="#4A5D73"/>
<path d="M94.775 118.645C104.004 121.389 111.424 104.177 100.761 102.244C91.2209 100.561 84.3621 115.091 94.775 118.645C96.895 119.394 97.8303 115.964 95.7103 115.278C89.7244 113.22 94.7126 105.113 99.7009 105.674C105.937 106.36 100.699 116.775 95.7103 115.278C93.5279 114.592 92.5926 118.022 94.775 118.645Z" fill="#4A5D73"/>
<path d="M74.8875 58.6531C73.5158 62.7066 75.8228 66.8225 80.1252 67.3837C84.0534 67.8826 89.2911 65.014 90.4758 61.0228C91.5981 57.2188 88.3558 54.163 84.864 53.6018C80.9358 52.9158 76.8828 54.5372 75.1369 58.2165C74.1393 60.2745 77.1946 62.0206 78.1922 59.9627C79.0652 58.1542 80.4993 57.094 82.5569 56.9693C84.0534 56.8446 86.6722 57.2811 87.1711 59.0896C88.4181 63.5797 75.8852 66.8848 78.3169 59.5885C79.0028 57.4058 75.5734 56.5328 74.8875 58.6531Z" fill="#4A5D73"/>
<path d="M38.3419 71.6242C42.1455 71.0006 45.1384 68.0072 45.6996 64.2031C46.1984 60.7109 44.3278 57.4057 40.7737 56.5326C35.8478 55.3478 30.7349 58.9648 29.3631 63.7043C27.7419 69.1297 33.1666 72.1855 37.9055 71.6866C40.1502 71.4371 40.1502 67.9449 37.9055 68.1943C34.5384 68.5685 31.2337 66.9471 33.4784 63.2677C34.9125 60.898 38.2796 58.6529 41.0231 60.3991C42.4572 61.2721 42.5819 63.2054 42.0831 64.6397C41.3349 66.76 39.589 67.8825 37.469 68.2567C35.1619 68.6308 36.0972 71.9984 38.3419 71.6242Z" fill="#4A5D73"/>
<path d="M0.185406 7.64112C-0.9993 12.0064 2.86659 15.8729 7.10659 15.9976C11.4713 16.1223 16.5842 12.2559 16.9583 7.70349C17.3948 3.27579 13.1548 -0.0293761 9.03953 0.15771C4.73717 0.344795 1.43246 3.71233 0.185406 7.64112C-0.500476 9.82378 2.92894 10.7592 3.55246 8.57656C4.17599 6.58098 5.4854 4.77248 7.54306 4.02413C9.53835 3.27579 12.2818 3.83705 13.1548 6.01971C14.2148 8.57656 11.3465 11.3828 9.10188 12.1935C6.79482 13.0042 2.74187 11.757 3.55246 8.63892C4.17599 6.39389 0.808935 5.45846 0.185406 7.64112Z" fill="#4A5D73"/>
</g>
</svg>
