<svg width="375" height="1189" viewBox="0 0 375 1189" fill="none" xmlns="http://www.w3.org/2000/svg">
<path d="M247.954 1187.49C142.185 1139.96 47.8043 1015.1 54.2063 948.779C62.2088 865.876 192.195 899.375 212.888 914.968C243.052 937.696 226.403 963.57 186.374 969.065C170.515 971.243 79.7701 972.698 72.0942 883.614C64.4184 794.531 192.385 691.53 253.258 647.107C314.131 602.684 375.828 537.059 373.051 455.556C366.512 263.661 259.401 234.247 182.381 201.248C74.0721 154.844 35.2822 121.047 -9.01811 1.19254" stroke="url(#paint0_linear_335_16)" stroke-width="2"/>
<path d="M247.954 1187.49C142.185 1139.96 47.8043 1015.1 54.2063 948.779C62.2088 865.876 192.195 899.375 212.888 914.968C243.052 937.696 226.403 963.57 186.374 969.065C170.515 971.243 79.7701 972.698 72.0942 883.614C64.4184 794.531 192.385 691.53 253.258 647.107C314.131 602.684 375.828 537.059 373.051 455.556C366.512 263.661 259.401 234.247 182.381 201.248C74.0721 154.844 35.2822 121.047 -9.01811 1.19254" stroke="url(#paint1_linear_335_16)" stroke-width="2"/>
<defs>
<linearGradient id="paint0_linear_335_16" x1="346.647" y1="1360.23" x2="745" y2="1044.99" gradientUnits="userSpaceOnUse">
<stop stop-color="white"/>
<stop offset="0.30553" stop-color="#A36FE4"/>
<stop offset="0.578125" stop-color="#878ED2"/>
<stop offset="1" stop-color="#7DC1D0"/>
</linearGradient>
<linearGradient id="paint1_linear_335_16" x1="214.737" y1="1188.62" x2="174.063" y2="-5.04598" gradientUnits="userSpaceOnUse">
<stop stop-color="#FF6F61"/>
<stop offset="0.5" stop-color="#FFC107"/>
<stop offset="1" stop-color="#4A5D73"/>
</linearGradient>
</defs>
</svg>
