<svg width="23" height="16" viewBox="0 0 23 16" fill="none" xmlns="http://www.w3.org/2000/svg">
<path d="M9.14286 11.4276L15.0743 7.99902L9.14286 4.57045V11.4276ZM22.3543 2.47902C22.5029 3.01617 22.6057 3.73617 22.6743 4.65045C22.7543 5.56474 22.7886 6.35331 22.7886 7.03902L22.8571 7.99902C22.8571 10.5019 22.6743 12.3419 22.3543 13.519C22.0686 14.5476 21.4057 15.2105 20.3771 15.4962C19.84 15.6447 18.8571 15.7476 17.3486 15.8162C15.8629 15.8962 14.5029 15.9305 13.2457 15.9305L11.4286 15.999C6.64 15.999 3.65714 15.8162 2.48 15.4962C1.45143 15.2105 0.788572 14.5476 0.502857 13.519C0.354286 12.9819 0.251429 12.2619 0.182857 11.3476C0.102857 10.4333 0.0685714 9.64474 0.0685714 8.95902L0 7.99902C0 5.49617 0.182857 3.65617 0.502857 2.47902C0.788572 1.45045 1.45143 0.787595 2.48 0.501881C3.01714 0.353309 4 0.250452 5.50857 0.18188C6.99429 0.10188 8.35429 0.0675948 9.61143 0.0675948L11.4286 -0.000976562C16.2171 -0.000976562 19.2 0.181881 20.3771 0.501881C21.4057 0.787595 22.0686 1.45045 22.3543 2.47902Z" fill="#FF6F61"/>
</svg>
